<?xml version="1.0" standalone="no"?>
<!DOCTYPE svg PUBLIC "-//W3C//DTD SVG 20010904//EN"
 "http://www.w3.org/TR/2001/REC-SVG-20010904/DTD/svg10.dtd">
<svg version="1.0" xmlns="http://www.w3.org/2000/svg"
 width="256.000000pt" height="256.000000pt" viewBox="0 0 256.000000 256.000000"
 preserveAspectRatio="xMidYMid meet">
<metadata>
Created by potrace 1.16, written by Peter Selinger 2001-2019
</metadata>
<g transform="translate(0.000000,256.000000) scale(0.100000,-0.100000)"
fill="#000000" stroke="none">
<path d="M1117 2459 c-145 -19 -356 -104 -500 -201 -72 -49 -190 -164 -251
-245 -57 -76 -137 -234 -166 -328 -27 -89 -50 -240 -50 -330 0 -169 52 -374
132 -527 50 -94 79 -128 110 -128 13 0 34 -3 48 -6 14 -3 21 -2 15 3 -47 38
-165 272 -196 390 -39 143 -36 473 5 516 6 6 26 41 45 77 49 95 164 242 247
317 139 124 242 182 367 203 l64 12 69 -43 c83 -51 210 -147 244 -185 25 -27
24 -27 -40 8 -85 47 -189 83 -290 102 -45 9 -88 16 -96 16 -20 0 -17 -19 4
-27 112 -38 235 -93 305 -135 48 -28 87 -55 87 -58 0 -4 -39 -10 -87 -13 -157
-11 -315 -66 -398 -138 -48 -42 -94 -110 -102 -151 l-6 -32 49 36 c66 48 211
121 305 152 90 30 233 56 298 55 l46 -1 -50 -10 c-284 -52 -467 -124 -602
-234 -42 -34 -84 -96 -98 -141 -9 -32 15 -30 46 3 66 71 304 202 459 254 122
42 134 36 20 -9 -296 -116 -476 -244 -545 -384 -36 -75 -60 -207 -37 -207 6 0
32 37 59 82 54 91 139 183 234 253 109 81 106 71 -17 -51 -129 -128 -170 -190
-199 -299 -22 -86 -17 -211 8 -202 10 3 68 95 204 324 37 62 69 111 71 108 6
-6 -47 -160 -89 -259 -21 -49 -61 -122 -89 -163 -27 -40 -50 -77 -50 -82 0 -4
30 -11 68 -15 82 -9 229 -40 297 -64 l50 -17 -110 -5 c-73 -4 -31 -6 125 -6
129 0 213 2 185 5 -27 3 -71 17 -96 30 l-46 24 -7 166 c-4 91 -9 178 -13 194
-9 42 23 24 38 -21 26 -81 73 -170 123 -237 30 -38 59 -89 65 -112 l12 -43 58
0 59 0 -13 42 c-10 36 -10 52 3 98 8 30 19 59 24 65 5 5 54 10 109 10 99 0
101 1 126 29 21 25 24 37 20 72 -3 27 1 50 9 62 7 11 14 32 14 48 0 16 1 40 2
54 1 14 -1 35 -5 46 -6 18 -3 22 22 27 64 13 59 65 -20 197 -33 56 -40 76 -35
101 3 17 1 40 -6 52 -6 11 -11 61 -12 110 -1 83 -3 90 -27 110 -19 15 -29 36
-34 67 -11 68 -52 175 -101 266 l-44 82 88 -31 c149 -53 289 -153 377 -269 60
-80 136 -236 172 -353 24 -82 27 -105 27 -260 1 -192 -7 -237 -77 -410 -49
-123 -80 -178 -109 -193 -15 -8 -99 -13 -243 -15 -186 -2 -172 -3 90 -5 171
-1 315 2 321 6 18 11 84 120 115 187 76 169 103 291 103 480 0 164 -18 265
-72 400 -75 192 -166 319 -322 449 -240 201 -573 296 -893 255z m302 -220 c25
-5 113 -171 156 -299 35 -103 31 -107 -17 -15 -29 55 -65 103 -114 153 -89 90
-117 96 -68 15 19 -31 34 -61 34 -66 0 -10 -4 -8 -117 75 -43 31 -116 77 -162
101 l-83 45 178 -3 c99 -2 185 -4 193 -6z m267 -503 c13 -52 4 -59 -81 -72
-111 -16 -265 -58 -362 -100 -61 -26 -93 -34 -125 -32 l-43 3 60 41 c124 85
265 145 398 169 116 21 146 19 153 -9z m18 -138 c9 -12 16 -42 16 -65 0 -33
11 -63 50 -130 28 -48 50 -97 50 -110 0 -21 -5 -23 -50 -23 -27 0 -53 -1 -57
-1 -5 -1 -13 8 -19 19 -8 16 -13 19 -22 10 -32 -32 1 -83 50 -76 16 2 25 -5
34 -27 11 -27 10 -31 -4 -32 -41 -2 -122 -29 -127 -42 -8 -20 -2 -22 33 -10
44 15 96 8 100 -13 3 -13 -3 -18 -22 -18 -35 0 -42 -18 -17 -41 25 -24 27 -61
4 -84 -13 -13 -27 -16 -63 -11 -71 9 -278 84 -326 117 -48 32 -88 105 -99 178
-4 26 -17 54 -31 68 -17 17 -24 35 -24 63 0 27 -7 45 -22 60 -44 41 -98 16
-98 -45 0 -41 16 -54 24 -20 12 48 36 17 36 -46 0 -27 16 -39 50 -39 42 0 50
-72 10 -85 -27 -8 -51 7 -92 57 -74 90 -88 159 -43 203 45 46 109 28 155 -43
14 -22 18 -23 62 -12 56 14 63 21 87 91 18 53 19 54 88 81 64 25 154 44 225
47 17 1 32 -7 42 -21z"/>
<path d="M1512 1530 c-43 -31 -56 -56 -24 -46 23 7 105 25 115 26 4 0 7 -4 7
-8 0 -4 -20 -13 -45 -20 -49 -13 -60 -32 -19 -32 37 0 61 -16 68 -45 9 -34 20
-31 34 8 6 17 18 52 27 76 21 58 10 71 -65 71 -48 0 -64 -5 -98 -30z"/>
<path d="M380 640 c-12 -8 -13 -13 -2 -30 15 -25 16 -114 0 -140 -7 -10 -9
-22 -5 -27 11 -10 171 -13 188 -2 11 7 12 12 2 29 -7 11 -13 27 -13 37 0 12
15 3 50 -32 42 -41 51 -46 65 -35 8 7 15 29 16 49 0 34 1 35 10 11 23 -57 84
-85 135 -61 18 8 31 8 45 0 11 -6 34 -7 50 -4 24 5 30 11 26 26 -4 14 0 19 14
19 13 0 17 -5 12 -16 -8 -21 14 -34 57 -34 49 0 69 14 52 37 -6 10 -30 55 -51
101 -33 68 -44 82 -63 82 -31 0 -48 -18 -48 -51 0 -25 -36 -119 -45 -119 -2 0
-2 6 1 14 8 21 -10 27 -45 13 -29 -11 -34 -10 -47 7 -16 23 -19 72 -4 81 6 3
23 -8 39 -26 25 -27 32 -30 45 -19 16 13 21 46 10 74 -8 22 -87 31 -125 15
-17 -7 -40 -26 -50 -43 -17 -27 -19 -28 -19 -9 0 12 5 23 12 25 6 2 9 12 5 21
-9 23 -75 24 -84 1 -3 -8 -1 -20 6 -27 6 -6 11 -18 11 -26 0 -9 -16 1 -42 26
-43 41 -44 42 -118 42 -41 0 -82 -4 -90 -9z"/>
<path d="M1135 627 c-19 -27 -19 -41 0 -57 12 -10 18 -10 30 0 13 11 15 6 15
-39 0 -28 -4 -51 -10 -51 -5 0 -10 -7 -10 -15 0 -37 93 -46 114 -11 8 14 8 20
-1 23 -8 3 -13 25 -13 61 0 49 2 54 14 37 8 -11 19 -16 30 -12 13 5 16 -1 16
-34 0 -22 -5 -49 -11 -61 -14 -27 -7 -32 49 -32 l47 -1 -2 35 -3 35 14 -32 c8
-17 23 -33 33 -36 25 -7 95 -8 116 -1 20 6 23 30 5 37 -7 3 -1 6 14 6 20 1 26
-3 22 -13 -7 -19 26 -36 71 -36 39 0 55 20 36 44 -7 8 -30 51 -51 95 -34 69
-43 81 -64 81 -27 0 -46 -25 -46 -59 0 -27 -37 -111 -50 -111 -5 0 -10 8 -10
17 0 9 -7 25 -17 35 -9 11 -11 18 -5 18 7 0 12 15 12 35 0 56 -22 64 -187 64
-135 0 -143 -1 -158 -22z"/>
<path d="M1660 635 c-11 -13 -10 -18 3 -33 8 -9 27 -46 42 -82 48 -116 64
-115 115 2 46 106 60 111 60 19 0 -41 -4 -71 -10 -71 -15 0 -12 -27 4 -33 8
-3 80 -6 160 -6 158 0 176 6 176 54 0 34 -18 41 -41 16 -11 -12 -24 -19 -30
-16 -13 9 -11 109 2 122 7 7 9 18 6 26 -5 13 -35 15 -170 16 -91 1 -172 -2
-180 -5 -11 -4 -14 -15 -10 -39 3 -19 1 -35 -6 -39 -11 -7 -13 0 -15 54 -1 22
-6 25 -47 28 -32 2 -50 -2 -59 -13z"/>
<path d="M1583 418 c-13 -6 -23 -19 -23 -28 0 -13 -6 -16 -25 -12 -38 7 -75
-6 -75 -27 0 -10 3 -20 6 -23 3 -3 7 -34 9 -67 3 -70 13 -85 62 -102 39 -12
105 0 120 24 4 6 11 41 14 77 4 36 10 75 14 88 6 19 3 23 -22 28 -22 4 -29 11
-29 27 1 25 -19 31 -51 15z"/>
<path d="M887 373 c-11 -10 -8 -43 3 -43 15 0 12 -123 -2 -139 -21 -21 19 -44
65 -38 48 7 54 13 39 37 -17 27 -15 40 6 40 33 0 65 25 79 60 13 34 13 34 9
-25 -2 -33 -7 -70 -11 -81 -6 -21 -3 -22 77 -26 57 -3 86 -1 93 7 8 10 13 9
23 -1 17 -18 62 -18 89 1 18 13 22 13 33 0 15 -18 50 -19 74 -2 17 12 16 16
-8 61 -20 38 -23 52 -14 70 13 29 -3 63 -36 76 -25 9 -308 13 -331 4 -8 -4
-12 -11 -8 -17 3 -6 -4 -3 -18 6 -24 17 -148 25 -162 10z"/>
</g>
</svg>
